PathFileType	4	(X/Y/Z)	D:\Share\Shared_Data\Ergonomics\Sit To Stand Pertubation\S2\S2 Cal 01.trc
DataRate	CameraRate	NumFrames	NumMarkers	Units	OrigDataRate	OrigDataStartFrame	OrigNumFrames	
100	100	10	21	mm	100	26	206
Frame#	Time	R_ASIS			R_Pelvis			V_Sacral			L_Pelvis			L_ASIS			Clavical			R_Acromium			L_Acromium			Sternum			Torso			R_Thigh_Med			R_Thigh_Lat			R_Thigh			R_Shank_Med			R_Shank_Lat			R_Shank			R_Heel			R_Toe			RAJC			RHJC			RKJC			
		X1	Y1	Z1	X2	Y2	Z2	X3	Y3	Z3	X4	Y4	Z4	X5	Y5	Z5	X6	Y6	Z6	X7	Y7	Z7	X8	Y8	Z8	X9	Y9	Z9	X10	Y10	Z10	X11	Y11	Z11	X12	Y12	Z12	X13	Y13	Z13	X14	Y14	Z14	X15	Y15	Z15	X16	Y16	Z16	X17	Y17	Z17	X18	Y18	Z18	X19	Y19	Z19	X20	Y20	Z20	X21	Y21	Z21	

26	0.25	425.67975	1026.4873	129.41183	352.04877	1029.5928	169.79126	219.18965	1039.4535	-1.8014054	333.76685	1040.6481	-172.60829	419.90567	1037.464	-136.14882	406.11838	1449.8794	-9.4247398	300.55591	1474.4955	195.7224	299.02612	1481.3926	-198.27507	451.47122	1289.783	-12.683178	416.4454	1410.12	-123.51781	341.41129	494.95239	63.872868	335.48999	516.6377	153.118	430.88922	674.3996	129.10011	304.81894	106.39848	69.103302	283.42331	100.68529	160.37927	302.75323	371.99765	183.97531	204.61507	60.611298	111.42429	441.9017	64.541023	108.80762	294.121125	103.541885	114.741286	362.7589163	939.6537931	89.25490805	338.45064	505.795045	108.495434
27	0.26	425.68634	1026.4916	129.36874	352.01227	1029.5999	169.75111	219.20078	1039.4742	-1.8712571	333.79688	1040.6569	-172.67245	419.94589	1037.4526	-136.19974	406.10437	1449.8815	-9.4540567	300.53705	1474.5096	195.70218	299.01703	1481.4147	-198.31265	451.48203	1289.7891	-12.696768	416.43851	1410.1313	-123.53467	341.36386	494.94284	63.859753	335.47827	516.64478	153.09219	430.87231	674.41418	129.06171	304.80835	106.39391	69.111748	283.43427	100.69068	160.39058	302.74017	372.01587	183.96378	204.61621	60.613747	111.45541	441.89758	64.532707	108.80685	294.12131	103.542295	114.751164	362.7570719	939.6611516	89.2084595	338.421065	505.79381	108.4759715
28	0.27	425.66492	1026.4844	129.33469	352.01138	1029.5961	169.69563	219.19762	1039.5186	-1.8734746	333.80414	1040.6553	-172.75461	419.98318	1037.4735	-136.24344	406.06595	1449.8988	-9.4618483	300.53278	1474.5051	195.65417	299.00677	1481.418	-198.34604	451.46753	1289.7991	-12.71498	416.43146	1410.1337	-123.55005	341.35699	494.93457	63.837605	335.4743	516.64752	153.05566	430.85043	674.40704	129.03691	304.80661	106.39494	69.105797	283.43079	100.68982	160.37106	302.73615	372.02078	183.92848	204.61655	60.608322	111.46349	441.89679	64.538269	108.81439	294.1187	103.54238	114.7384285	362.723779	939.6677995	89.15061273	338.415645	505.791045	108.4466325
29	0.28	425.65067	1026.4843	129.29114	351.99942	1029.5907	169.65538	219.20273	1039.5425	-1.9403348	333.8064	1040.6688	-172.79556	419.99622	1037.4874	-136.28113	406.04126	1449.8962	-9.4855337	300.51144	1474.5037	195.6377	298.98447	1481.4276	-198.3508	451.40854	1289.8097	-12.729305	416.41562	1410.1443	-123.5728	341.36295	494.92963	63.796951	335.45291	516.63623	153.02736	430.81625	674.40125	128.99939	304.79407	106.38728	69.128868	283.41977	100.69181	160.37236	302.70819	372.00745	183.90956	204.61543	60.605247	111.46583	441.88965	64.538361	108.8182	294.10692	103.539545	114.750614	362.7076011	939.6767088	89.09737831	338.40793	505.78293	108.4121555
30	0.29	425.64423	1026.4662	129.25064	351.97385	1029.5861	169.63326	219.21344	1039.5608	-1.9936373	333.82895	1040.6803	-172.83525	420.0033	1037.4923	-136.32307	406.0174	1449.8998	-9.5017099	300.50189	1474.4982	195.58788	298.96341	1481.4377	-198.34454	451.396	1289.8088	-12.764064	416.40027	1410.1543	-123.58476	341.36319	494.93439	63.781425	335.4325	516.63336	153.00366	430.80719	674.38257	129.00967	304.80231	106.37731	69.107613	283.42126	100.69072	160.36493	302.70557	372.02069	183.88797	204.60161	60.591759	111.43033	441.89774	64.531441	108.8138	294.111785	103.534015	114.7362715	362.6945021	939.6690777	89.04629168	338.397845	505.783875	108.3925425
31	0.3	425.64331	1026.4711	129.21501	351.96487	1029.58	169.56464	219.21071	1039.5802	-2.0803714	333.82318	1040.6865	-172.89661	419.99075	1037.5114	-136.36282	405.99939	1449.9017	-9.5353279	300.48578	1474.4955	195.5688	298.96448	1481.4397	-198.37694	451.46173	1289.7971	-12.802866	416.37433	1410.1635	-123.59782	341.34601	494.92331	63.745789	335.42474	516.63776	152.96582	430.78629	674.38666	128.97853	304.81506	106.39391	69.096939	283.42569	100.68433	160.38329	302.69608	372.01389	183.88026	204.61606	60.591171	111.44795	441.88135	64.54039	108.81599	294.120375	103.53912	114.7401145	362.6904698	939.676209	89.00801082	338.385375	505.780535	108.3558045
32	0.31	425.62756	1026.4694	129.16873	351.92868	1029.5814	169.51891	219.2126	1039.5784	-2.1410024	333.83466	1040.704	-172.94513	420.00275	1037.5132	-136.41599	406.06595	1449.8899	-9.5979395	300.46652	1474.4763	195.51309	298.94815	1481.429	-198.39006	451.44257	1289.7937	-12.827198	416.35159	1410.1656	-123.6122	341.2999	494.90836	63.709564	335.42163	516.63104	152.9348	430.75671	674.3689	128.9586	304.80573	106.37984	69.108841	283.43158	100.70114	160.37575	302.68185	372.01279	183.85864	204.59967	60.580456	111.42017	441.89334	64.529869	108.81667	294.118655	103.54049	114.7422955	362.6803304	939.6726973	88.95284346	338.360765	505.7697	108.322182
33	0.32	425.61905	1026.459	129.12946	351.9035	1029.5758	169.47226	219.19695	1039.5868	-2.2153392	333.86017	1040.71	-172.98785	419.98981	1037.5128	-136.46597	406.03256	1449.8875	-9.6127415	300.43365	1474.4567	195.50395	298.93713	1481.4427	-198.40866	451.43253	1289.7979	-12.836157	416.33414	1410.1613	-123.62574	341.34213	494.90338	63.685574	335.42059	516.63715	152.91017	430.7475	674.37122	128.93114	304.814	106.39574	69.096222	283.41553	100.68239	160.37425	302.67749	372.02609	183.82816	204.60274	60.605812	111.41795	441.89716	64.537453	108.81924	294.114765	103.539065	114.735236	362.6644344	939.664252	88.90970834	338.38136	505.770265	108.297872
34	0.33	425.62253	1026.4615	129.08905	351.86032	1029.5623	169.40182	219.19058	1039.5952	-2.2731118	333.82132	1040.7151	-173.04933	419.98291	1037.5236	-136.51624	406.02228	1449.8878	-9.6237202	300.40335	1474.4338	195.43385	298.9216	1481.4429	-198.43736	451.44879	1289.796	-12.847439	416.31012	1410.1639	-123.63196	341.30756	494.90115	63.65601	335.42444	516.63458	152.87799	430.73923	674.38416	128.87512	304.79391	106.37845	69.104118	283.41806	100.6837	160.37218	302.67334	372.03131	183.81529	204.60876	60.592037	111.43053	441.8996	64.540741	108.825	294.105985	103.531075	114.738149	362.6647719	939.6651755	88.86728203	338.366	505.767865	108.267
35	0.34	425.62067	1026.4653	129.05841	351.85553	1029.564	169.37805	219.1611	1039.5807	-2.3562379	333.86792	1040.7114	-173.09387	419.98529	1037.5211	-136.55719	405.9014	1449.8927	-9.5831814	300.35242	1474.4152	195.44179	298.90714	1481.4363	-198.44519	451.41519	1289.796	-12.840574	416.30563	1410.1721	-123.63957	341.30313	494.8848	63.627712	335.41196	516.6311	152.855	430.72992	674.38452	128.84125	304.79156	106.3629	69.110146	283.43109	100.69742	160.37273	302.68796	372.03262	183.78734	204.60378	60.584278	111.42335	441.88754	64.544807	108.83273	294.111325	103.53016	114.741438	362.6643607	939.6598041	88.83573228	338.357545	505.75795	108.241356
